<svg xmlns="http://www.w3.org/2000/svg" viewBox="0 0 512 512" role="img" aria-label="李奶奶数字人头像">
  <defs>
    <linearGradient id="bgB" x1="0" x2="1" y1="0" y2="1">
      <stop offset="0%" stop-color="#2d163b"/>
      <stop offset="100%" stop-color="#101a34"/>
    </linearGradient>
    <linearGradient id="coatB" x1="0" x2="0" y1="0" y2="1">
      <stop offset="0%" stop-color="#9b5fb5"/>
      <stop offset="100%" stop-color="#4b2b73"/>
    </linearGradient>
  </defs>
  <rect width="512" height="512" rx="36" fill="url(#bgB)"/>
  <circle cx="256" cy="176" r="108" fill="#f3d4c3"/>
  <path d="M149 172c10-62 53-112 107-112s96 51 107 112c-10-30-31-48-58-48-23 0-40 8-49 18-11-10-28-18-50-18-27 0-48 18-57 48z" fill="#ece8ff"/>
  <path d="M137 406c15-76 58-116 119-116 62 0 104 40 119 116z" fill="url(#coatB)"/>
  <circle cx="218" cy="205" r="11" fill="#33253f"/>
  <circle cx="294" cy="205" r="11" fill="#33253f"/>
  <path d="M225 252c19 13 43 13 62 0" stroke="#b16e6b" stroke-width="8" stroke-linecap="round" fill="none"/>
  <path d="M236 273h40" stroke="#ffffff" stroke-width="5" stroke-linecap="round"/>
  <circle cx="256" cy="176" r="108" fill="none" stroke="#ffd89e" stroke-opacity=".25" stroke-width="3"/>
</svg>
